<svg id="Livello_1" data-name="Livello 1" xmlns="http://www.w3.org/2000/svg" xmlns:xlink="http://www.w3.org/1999/xlink" viewBox="65 65 580 235"><defs><style>.cls-1{fill:none;}.cls-2{clip-path:url(#clip-path);}.cls-3{opacity:0.96;}.cls-4{clip-path:url(#clip-path-4);}.cls-5{clip-path:url(#clip-path-5);}.cls-6{fill:url(#Sfumatura_senza_nome_6);}.cls-7{clip-path:url(#clip-path-6);}.cls-8{clip-path:url(#clip-path-7);}.cls-9{fill:url(#Sfumatura_senza_nome_2);}.cls-10{clip-path:url(#clip-path-8);}.cls-11{clip-path:url(#clip-path-9);}.cls-12{fill:url(#Sfumatura_senza_nome_3);}.cls-13{fill:#4a0e8e;}</style><clipPath id="clip-path" transform="translate(44.37 54.26)"><rect class="cls-1" width="250" height="250"/></clipPath><clipPath id="clip-path-4" transform="translate(44.37 54.26)"><rect class="cls-1" x="25.77" y="16.73" width="167.22" height="208.79"/></clipPath><clipPath id="clip-path-5" transform="translate(44.37 54.26)"><path class="cls-1" d="M185.92,200.12,74.06,225.3a9,9,0,0,1-10.81-6.84L26,53a9,9,0,0,1,6.84-10.82L144.69,17a9,9,0,0,1,10.81,6.84L192.76,189.3a9,9,0,0,1-6.84,10.82"/></clipPath><linearGradient id="Sfumatura_senza_nome_6" x1="-0.64" y1="0.02" x2="-0.14" y2="0.02" gradientTransform="matrix(443.21, 0, 0, -443.21, 282.05, 128.71)" gradientUnits="userSpaceOnUse"><stop offset="0" stop-color="#72418f"/><stop offset="1" stop-color="#da4ce8"/></linearGradient><clipPath id="clip-path-6" transform="translate(44.37 54.26)"><rect class="cls-1" x="52.12" y="24.99" width="139.52" height="192.25"/></clipPath><clipPath id="clip-path-7" transform="translate(44.37 54.26)"><path class="cls-1" d="M183,212.6,68.4,217.24a9,9,0,0,1-9.4-8.68L52.13,39.05a9,9,0,0,1,8.67-9.41L175.37,25a9.06,9.06,0,0,1,9.41,8.67l6.86,169.52A9.06,9.06,0,0,1,183,212.6"/></clipPath><linearGradient id="Sfumatura_senza_nome_2" x1="-0.39" y1="0.64" x2="0.11" y2="0.64" gradientTransform="matrix(0, -440.27, -440.27, 0, 402.5, 59)" gradientUnits="userSpaceOnUse"><stop offset="0" stop-color="#6761e6"/><stop offset="1" stop-color="#8240e6"/></linearGradient><clipPath id="clip-path-8" transform="translate(44.37 54.26)"><rect class="cls-1" x="55.98" y="28.36" width="174.04" height="212.28"/></clipPath><clipPath id="clip-path-9" transform="translate(44.37 54.26)"><path class="cls-1" d="M173.07,240.31,62.6,209.57a9,9,0,0,1-6.29-11.14L101.79,35a9,9,0,0,1,11.14-6.29L223.4,59.43a9,9,0,0,1,6.29,11.14L184.21,234a9,9,0,0,1-11.14,6.29"/></clipPath><linearGradient id="Sfumatura_senza_nome_3" x1="1.14" y1="0.2" x2="1.64" y2="0.2" gradientTransform="matrix(-430.65, 0, 0, 430.65, 741.3, 48.67)" gradientUnits="userSpaceOnUse"><stop offset="0" stop-color="#4728de"/><stop offset="1" stop-color="#68b3d9"/></linearGradient></defs><title>logo</title><g class="cls-2"><g class="cls-2"><g class="cls-2"><g class="cls-3"><g class="cls-4"><g class="cls-5"><rect class="cls-6" x="-14.17" y="12.27" width="247.1" height="217.7" transform="translate(8.44 249.69) rotate(-75)"/></g></g></g><g class="cls-3"><g class="cls-7"><g class="cls-8"><rect class="cls-9" x="15.83" y="3.54" width="212.12" height="235.16" transform="translate(2.67 122.8) rotate(-27)"/></g></g></g><g class="cls-3"><g class="cls-10"><g class="cls-11"><rect class="cls-12" x="4.95" y="1.61" width="276.1" height="265.78" transform="translate(-4.1 232.1) rotate(-56)"/></g></g></g></g></g></g><path class="cls-13" d="M409.59,109.54q.12,5.38.12,9.47t-.12,9.47a36.81,36.81,0,0,1-2.63,13.6,29.47,29.47,0,0,1-7,10.25,29.79,29.79,0,0,1-10.55,6.41A39.41,39.41,0,0,1,375.91,161H347.74a3.28,3.28,0,0,1-3.24-3.24V80.29a3.28,3.28,0,0,1,3.24-3.24h27.45a41,41,0,0,1,13.72,2.22,30.88,30.88,0,0,1,10.85,6.41,29.29,29.29,0,0,1,7.13,10.25A35.88,35.88,0,0,1,409.59,109.54Zm-11.39.6a30.58,30.58,0,0,0-1.37-8.34,18.86,18.86,0,0,0-11.21-12.1,28.25,28.25,0,0,0-10.91-1.86H355.89v62.33h19.42a27.83,27.83,0,0,0,10.85-1.86,18.35,18.35,0,0,0,7-5,18.86,18.86,0,0,0,3.78-7.13,34.36,34.36,0,0,0,1.25-8.33q0-2.64.06-4.74c0-1.4.06-2.76.06-4.07s0-2.68-.06-4.08S398.2,112,398.2,110.14Z" transform="translate(44.37 54.26)"/><path class="cls-13" d="M464.25,127.76l24.22-46.87a9.52,9.52,0,0,1,2-2.64,4.55,4.55,0,0,1,3.29-1.2h4.56a3.26,3.26,0,0,1,3.23,3.24v77.43A3.26,3.26,0,0,1,498.3,161h-4.92a3.26,3.26,0,0,1-3.23-3.24V100.91L471.45,137a10.69,10.69,0,0,1-2,2.81,4,4,0,0,1-2.88,1H462a4,4,0,0,1-2.88-1,10.69,10.69,0,0,1-2-2.81l-18.7-36.08v56.81a3.28,3.28,0,0,1-3.24,3.24h-4.91a3.28,3.28,0,0,1-3.24-3.24V80.29a3.28,3.28,0,0,1,3.24-3.24h4.55a4.59,4.59,0,0,1,3.3,1.2,9.52,9.52,0,0,1,2,2.64Z" transform="translate(44.37 54.26)"/><path class="cls-13" d="M547.92,75.85a33.86,33.86,0,0,1,12.89,2.28,35.28,35.28,0,0,1,9.47,5.57,24.76,24.76,0,0,1,5.93,7.08,15.88,15.88,0,0,1,2.16,6.77,2.11,2.11,0,0,1-.72,1.86,2.74,2.74,0,0,1-1.92.78h-4.91a4,4,0,0,1-2.1-.48,5.33,5.33,0,0,1-1.62-2.16,22.78,22.78,0,0,0-2-3.06,17.53,17.53,0,0,0-3.72-3.59,23.1,23.1,0,0,0-5.7-3,22.06,22.06,0,0,0-7.79-1.26,25.88,25.88,0,0,0-6.41.78,18,18,0,0,0-5.45,2.34,12.29,12.29,0,0,0-3.84,3.89,10.21,10.21,0,0,0-1.44,5.46,9.57,9.57,0,0,0,1.38,5.27,12.36,12.36,0,0,0,4.44,3.9,38.13,38.13,0,0,0,7.73,3.17q4.67,1.44,11.38,3.24a72.61,72.61,0,0,1,11.57,4A29.73,29.73,0,0,1,575,123.5a16.33,16.33,0,0,1,4.38,6.23,21.83,21.83,0,0,1,1.38,8,21.05,21.05,0,0,1-2.34,9.88,23.34,23.34,0,0,1-6.53,7.74,31.5,31.5,0,0,1-10.13,5,45.56,45.56,0,0,1-13.25,1.8,38.81,38.81,0,0,1-12.82-2,35.35,35.35,0,0,1-10.07-5.27,27.54,27.54,0,0,1-6.66-7.19,15.67,15.67,0,0,1-2.57-7.8,2.65,2.65,0,0,1,2.63-2.63H524a4.4,4.4,0,0,1,2.1.48,4.24,4.24,0,0,1,1.62,2.15,17.42,17.42,0,0,0,6.23,7.38,24.12,24.12,0,0,0,6.11,2.93,27,27,0,0,0,8.51,1.2,32.17,32.17,0,0,0,8-1,23.58,23.58,0,0,0,6.66-2.75,14.75,14.75,0,0,0,4.55-4.32,9.91,9.91,0,0,0,1.68-5.63,7.89,7.89,0,0,0-1.92-5.34,17.38,17.38,0,0,0-5.51-4,52.25,52.25,0,0,0-8.81-3.3q-5.22-1.5-11.81-3.18a47.41,47.41,0,0,1-10.19-3.77,25,25,0,0,1-6.83-5.1,17.31,17.31,0,0,1-3.78-6.35,24.09,24.09,0,0,1-1.14-7.55A21.71,21.71,0,0,1,526.53,83a26.75,26.75,0,0,1,8.87-5.21A35.92,35.92,0,0,1,547.92,75.85Z" transform="translate(44.37 54.26)"/></svg>