<?xml version="1.0" encoding="utf-8"?>
<!-- Generator: Adobe Illustrator 22.1.0, SVG Export Plug-In . SVG Version: 6.00 Build 0)  -->
<svg version="1.1" id="Livello_1" xmlns="http://www.w3.org/2000/svg" xmlns:xlink="http://www.w3.org/1999/xlink" x="0px" y="0px"
	 viewBox="0 0 580 235" style="enable-background:new 0 0 580 235;" xml:space="preserve">
<style type="text/css">
	.st0{fill:#4A0E8E;}
	.st1{clip-path:url(#SVGID_2_);}
	.st2{fill:url(#SVGID_3_);}
	.st3{clip-path:url(#SVGID_5_);}
	.st4{fill:url(#SVGID_6_);}
	.st5{clip-path:url(#SVGID_8_);}
	.st6{fill:url(#SVGID_9_);}
</style>
<g>
	<path class="st0" d="M389,98.8c0.1,3.6,0.1,6.7,0.1,9.5s0,5.9-0.1,9.5c0,4.7-0.9,9.3-2.6,13.6c-1.6,3.9-4,7.4-7,10.3
		c-3,2.8-6.6,5-10.5,6.4c-4.3,1.5-8.9,2.3-13.5,2.3h-28.2c-1.8,0-3.2-1.5-3.2-3.2V69.6c0-1.8,1.5-3.2,3.2-3.2h27.5
		c4.7,0,9.3,0.7,13.7,2.2c4,1.4,7.7,3.6,10.9,6.4c3.1,2.9,5.5,6.4,7.1,10.3C388,89.5,389,94.1,389,98.8z M377.6,99.4
		c-0.1-2.8-0.5-5.6-1.4-8.3c-1.7-5.5-5.8-10-11.2-12.1c-3.5-1.3-7.2-2-10.9-1.9h-18.8v62.3h19.4c3.7,0.1,7.4-0.5,10.9-1.9
		c2.7-1.1,5.1-2.8,7-5c1.8-2.1,3-4.5,3.8-7.1c0.8-2.7,1.2-5.5,1.3-8.3c0-1.8,0-3.3,0.1-4.7c0-1.4,0.1-2.8,0.1-4.1s0-2.7-0.1-4.1
		C377.6,102.8,377.6,101.3,377.6,99.4L377.6,99.4z"/>
	<path class="st0" d="M443.6,117l24.2-46.9c0.5-1,1.2-1.9,2-2.6c0.9-0.8,2.1-1.3,3.3-1.2h4.6c1.8,0,3.2,1.5,3.2,3.2V147
		c0,1.8-1.4,3.3-3.2,3.3c0,0,0,0,0,0h-4.9c-1.8,0-3.2-1.5-3.2-3.2V90.2l-18.7,36.1c-0.5,1-1.2,2-2,2.8c-0.8,0.7-1.8,1.1-2.9,1h-4.6
		c-1.1,0.1-2.1-0.3-2.9-1c-0.8-0.8-1.5-1.8-2-2.8l-18.7-36.1V147c0,1.8-1.5,3.2-3.2,3.2h-4.9c-1.8,0-3.2-1.5-3.2-3.2V69.6
		c0-1.8,1.5-3.2,3.2-3.2h4.5c1.2-0.1,2.4,0.4,3.3,1.2c0.8,0.8,1.5,1.6,2,2.6L443.6,117z"/>
	<path class="st0" d="M527.3,65.1c4.4-0.1,8.8,0.7,12.9,2.3c3.4,1.4,6.6,3.2,9.5,5.6c2.4,2,4.4,4.4,5.9,7.1c1.2,2.1,2,4.4,2.2,6.8
		c0.1,0.7-0.2,1.4-0.7,1.9c-0.5,0.5-1.2,0.8-1.9,0.8h-4.9c-0.7,0-1.5-0.1-2.1-0.5c-0.7-0.6-1.3-1.3-1.6-2.2c-0.6-1.1-1.3-2.1-2-3.1
		c-1.1-1.4-2.3-2.6-3.7-3.6c-1.8-1.3-3.7-2.3-5.7-3c-2.5-0.9-5.1-1.3-7.8-1.3c-2.2,0-4.3,0.3-6.4,0.8c-1.9,0.5-3.8,1.3-5.5,2.3
		c-1.6,1-2.9,2.3-3.8,3.9c-1,1.6-1.5,3.5-1.4,5.5c-0.1,1.9,0.4,3.7,1.4,5.3c1.1,1.6,2.7,3,4.4,3.9c2.5,1.3,5,2.4,7.7,3.2
		c3.1,1,6.9,2,11.4,3.2c4,1,7.8,2.3,11.6,4c2.8,1.2,5.4,2.8,7.7,4.8c1.9,1.7,3.4,3.8,4.4,6.2c1,2.6,1.4,5.3,1.4,8
		c0,3.4-0.8,6.8-2.3,9.9c-1.6,3-3.8,5.7-6.5,7.7c-3,2.3-6.5,4-10.1,5c-4.3,1.2-8.8,1.9-13.3,1.8c-4.4,0.1-8.7-0.6-12.8-2
		c-3.6-1.2-7-3-10.1-5.3c-2.6-2-4.9-4.4-6.7-7.2c-1.5-2.3-2.4-5-2.6-7.8c0-1.4,1.2-2.6,2.6-2.6h5c0.7,0,1.5,0.1,2.1,0.5
		c0.8,0.5,1.3,1.3,1.6,2.1c1.3,3,3.5,5.6,6.2,7.4c1.9,1.3,3.9,2.2,6.1,2.9c2.8,0.9,5.6,1.3,8.5,1.2c2.7,0,5.4-0.3,8-1
		c2.3-0.6,4.6-1.5,6.7-2.8c1.8-1.1,3.4-2.6,4.5-4.3c1.1-1.7,1.7-3.6,1.7-5.6c0-2-0.6-3.9-1.9-5.3c-1.6-1.7-3.4-3-5.5-4
		c-2.8-1.4-5.8-2.5-8.8-3.3c-3.5-1-7.4-2.1-11.8-3.2c-3.5-0.9-6.9-2.1-10.2-3.8c-2.6-1.3-4.9-3-6.8-5.1c-1.7-1.8-3-4-3.8-6.4
		c-0.8-2.4-1.2-5-1.1-7.6c0-6.1,2.5-12,7.1-16.1c2.6-2.3,5.6-4.1,8.9-5.2C518.8,65.7,523,65,527.3,65.1z"/>
</g>
<g>
	<g>
		<defs>
			<path id="SVGID_1_" d="M165.3,189.4L53.4,214.6c-4.8,1.1-9.7-1.9-10.8-6.8c0,0,0-0.1,0-0.1L5.4,42.3c-1.1-4.8,1.9-9.7,6.7-10.8
				c0,0,0.1,0,0.1,0L124.1,6.3c4.8-1.1,9.7,1.9,10.8,6.8c0,0,0,0.1,0,0.1l37.3,165.5c1.1,4.8-1.9,9.7-6.7,10.8
				C165.4,189.4,165.3,189.4,165.3,189.4"/>
		</defs>
		<clipPath id="SVGID_2_">
			<use xlink:href="#SVGID_1_"  style="overflow:visible;"/>
		</clipPath>
		<g class="st1">
			
				<linearGradient id="SVGID_3_" gradientUnits="userSpaceOnUse" x1="-670.0653" y1="659.5077" x2="-669.5653" y2="659.5077" gradientTransform="matrix(114.7112 -428.108 428.108 114.7112 -205416.5 -362295.625)">
				<stop  offset="0" style="stop-color:#72418F"/>
				<stop  offset="1" style="stop-color:#DA4CE8"/>
			</linearGradient>
			<polygon class="st2" points="-48.4,201.6 15.6,-37.1 225.9,19.2 161.9,257.9 			"/>
		</g>
	</g>
	<g>
		<defs>
			<path id="SVGID_4_" d="M162.4,201.9l-114.6,4.6c-5,0.2-9.2-3.6-9.4-8.6c0,0,0-0.1,0-0.1L31.5,28.3c-0.2-5,3.6-9.2,8.6-9.4
				c0,0,0.1,0,0.1,0l114.6-4.6c5-0.2,9.2,3.7,9.4,8.7l6.9,169.5C171.2,197.4,167.3,201.6,162.4,201.9"/>
		</defs>
		<clipPath id="SVGID_5_">
			<use xlink:href="#SVGID_4_"  style="overflow:visible;"/>
		</clipPath>
		<g class="st3">
			
				<linearGradient id="SVGID_6_" gradientUnits="userSpaceOnUse" x1="-670.7353" y1="658.2169" x2="-670.2353" y2="658.2169" gradientTransform="matrix(-199.8784 -392.2834 392.2834 -199.8784 -392122.0625 -131347)">
				<stop  offset="0" style="stop-color:#6761E6"/>
				<stop  offset="1" style="stop-color:#8240E6"/>
			</linearGradient>
			<polygon class="st4" points="-46.6,53.8 142.4,-42.5 249.1,167 60.1,263.3 			"/>
		</g>
	</g>
	<g>
		<defs>
			<path id="SVGID_7_" d="M152.4,229.6L42,198.8c-4.8-1.3-7.6-6.3-6.3-11.1c0,0,0-0.1,0-0.1L81.2,24.3c1.3-4.8,6.3-7.6,11.1-6.3
				c0,0,0.1,0,0.1,0l110.5,30.7c4.8,1.3,7.6,6.3,6.3,11.1c0,0,0,0.1,0,0.1l-45.5,163.4C162.3,228.1,157.3,230.9,152.4,229.6
				C152.5,229.6,152.5,229.6,152.4,229.6"/>
		</defs>
		<clipPath id="SVGID_8_">
			<use xlink:href="#SVGID_7_"  style="overflow:visible;"/>
		</clipPath>
		<g class="st5">
			
				<linearGradient id="SVGID_9_" gradientUnits="userSpaceOnUse" x1="-667.957" y1="656.1744" x2="-667.457" y2="656.1744" gradientTransform="matrix(-240.8164 357.025 -357.025 -240.8164 73598.0547 396529.6875)">
				<stop  offset="0" style="stop-color:#4728DE"/>
				<stop  offset="1" style="stop-color:#68B3D9"/>
			</linearGradient>
			<polygon class="st6" points="-65,163.9 89.4,-65 309.7,83.6 155.3,312.5 			"/>
		</g>
	</g>
</g>
</svg>
