<svg version="1" xmlns="http://www.w3.org/2000/svg" width="813.333" height="813.333" viewBox="0 0 610.000000 610.000000"><path d="M355.5.8c-1.6.2-12 2.4-23 4.8-11 2.5-21.1 4.7-22.5 5-1.4.3-5.4 1.2-9 2-3.6.9-7.6 1.8-8.9 2-1.2.3-5.3 1.2-9 2-3.6.9-7.5 1.8-8.6 2-1.1.2-14.9 3.3-30.7 6.9-26.4 6-29.9 6.6-43.5 7.1-8.1.2-18.8.7-23.8.9-4.9.2-16.6.7-26 1-35.2 1.3-36.7 1.5-43.6 8.7-3.4 3.4-5 6.1-6 9.7-1.2 4.8-1.4 5-5.8 6-2.5.6-14.7 3.3-27 6.1s-24 5.8-26 6.6C34 75 28.7 83.2 28.4 92.8c-.2 3.6.1 7.5.6 8.7.5 1.2 1.1 3.5 1.3 5.1.4 2.4 1.5 7.2 5.2 23.4 1 4.5 12.7 56.7 13 58 .2.8 1 4.5 1.9 8.1.8 3.7 1.7 7.8 2 9 2.5 11.6 11.8 52.4 12.1 52.9.2.3.6 2.3.9 4.5.4 2.2 1.4 6.9 2.2 10.5.8 3.6 2.7 11.4 4 17.5 3 13.3 11 48.7 12.8 57 2.2 9.7 15.8 69.9 16.1 71.5.8 3.2 3.6 16 5.5 24.5 1.1 4.9 2.9 12.8 4 17.5 4.1 17.2 4.5 20.5 2.6 27-3.7 13.5-3.3 19.3 2.1 27.2 2.1 3.1 3.6 6.8 3.8 9 .4 4.4 2.7 9.4 5.9 12.9 3.2 3.4 4.5 6.1 5.2 10.6 1.1 7.2 6.1 14 12.8 17.6 5.4 2.9 16.1 2.9 27.6 0 4.7-1.2 14.8-3.5 22.5-5.3 7.7-1.7 18.6-4.2 24.2-5.5l10.1-2.3 13.9 3.9c7.6 2.2 14.7 4.1 15.8 4.3 1.1.3 10.6 2.9 21 5.9 18.3 5.2 23.9 6.8 26 7.2.6.2 9.3 2.6 19.5 5.5 10.2 2.8 19.2 5.4 20 5.6.8.1 6.5 1.7 12.5 3.4 11.8 3.4 46.3 13 48 13.4.6.1 3.7 1 7 2 24.4 7.3 30.9 7.2 40.3-.2 6-4.8 5.6-3.6 20.6-57.7 12.8-46.2 19.7-71.1 24.6-88.5 2.9-10.2 5.3-19.2 5.5-20 .2-.8 1.7-6.2 3.3-12 2.9-9.8 11.6-41.2 14.7-52.5 2.7-10 26.6-96.2 28.5-102.5 13.2-45.3 35-126.6 35-130.6 0-5.9-2.6-11.8-7-16.2-5-5.1-5.9-5.4-36.5-13.7-2.7-.8-14.9-4.1-27-7.5-12.1-3.4-22.7-6.3-23.5-6.5-5.6-1.4-26.3-7.5-26.7-7.9-.3-.2-.7-4.7-.9-9.8-.2-5.1-.6-14.8-.9-21.6-.2-6.8-1-14.2-1.7-16.3-1.7-5.7-7.8-12.2-13.8-14.8-4.9-2.1-6.1-2.2-21.8-1.5-9.2.3-22.3.7-29.1.8l-12.5.1-.8-3.8C378.3 8.8 366.5-.5 355.5.8z"/></svg>